<svg xmlns="http://www.w3.org/2000/svg" width="662.915" height="655.959" viewBox="0 0 662.915 655.959"><defs><style>.a{fill:#e1fcdb;}.b,.e,.h,.j,.l,.o,.u,.v,.w{fill:none;stroke-miterlimit:10;}.b{stroke:#c5dcef;}.c{fill:#d2995a;}.d{fill:#58dd72;}.e{stroke:#e0ecf8;}.f{fill:#ffe0e0;}.g{fill:#fff6e2;}.h{stroke:#fff;}.i{fill:#ffbc6f;}.j{stroke:#fff6e2;}.k{fill:#1c2f66;}.l{stroke:#1c2f66;stroke-width:1.5px;}.m{fill:#28235d;}.n{fill:#0989f9;}.o{stroke:#1266c9;}.o,.u,.w{stroke-width:0.75px;}.p{fill:#db9451;}.q{fill:#e2c6b3;}.r{fill:#fff;}.s{fill:#1f1f1f;}.t{fill:#254999;}.u{stroke:#254999;}.v{stroke:#d8889b;stroke-width:0.5px;}.w{stroke:#202f66;}</style></defs><g transform="translate(-265.536 -263.86)"><g transform="translate(319.641 650.903)"><path class="a" d="M328.6,506.513c-10.059-16.772-18.549-34.282-27.664-51.506A239.679,239.679,0,0,1,288.908,429.3c-3.063-7.947-7.6-17.514-7.32-26.156.216-6.672,4.409-13.722,10.983-14.9,4.685-.837,9.408,1.43,13.129,4.4,6.952,5.542,11.54,13.476,15.476,21.447C333.7,439.443,341.3,467.37,342.09,495.641" transform="translate(-281.575 -356.126)"/><path class="a" d="M306.047,533.9a314.05,314.05,0,0,1-10.228-78.252c-.091-23.923,3.076-49.205,17.588-68.224,3.282-4.3,7.627-8.457,13.024-8.8,5.6-.358,10.737,3.677,13.351,8.636s3.191,10.707,3.613,16.3a420.366,420.366,0,0,1-8.065,119.028" transform="translate(-247.775 -378.599)"/><path class="a" d="M305.258,512.029c6.723-39.308,14.512-80.89,41.184-110.537,6.406-7.114,14.063-13.52,23.245-16.229,2.958-.874,6.578-1.187,8.73,1.022a8.467,8.467,0,0,1,1.9,4.105c2.844,12.285-1.973,24.952-7.279,36.394-14.3,30.811-32.751,59.49-51.539,87.788" transform="translate(-225.371 -364.354)"/><path class="b" d="M288.767,397.464a220.086,220.086,0,0,1,29.455,64.6" transform="translate(-264.508 -333.83)"/><path class="b" d="M304.762,388.945c-4.486,30.241-.975,62.607,1.791,92.065" transform="translate(-231.642 -354.047)"/><path class="b" d="M350.093,393.515c-19.126,27.775-37.068,63.275-41.656,94.386" transform="translate(-217.826 -343.201)"/><path class="c" d="M365.436,412.736h-79.05l13.937,104.575H381.28l13.937-104.575Z" transform="translate(-270.159 -297.585)"/></g><g transform="translate(462.104 742.474)"><path class="d" d="M338.135,480.011A181.846,181.846,0,0,1,324.1,430.9c-.617-4.476-.3-10.305,3.957-11.833,3.805-1.366,7.6,1.983,9.975,5.256a60.269,60.269,0,0,1,11.31,31.256c-.654-14.738-1.113-30.352,6.082-43.231,1.3-2.328,2.938-4.615,5.309-5.836s5.643-1.042,7.333,1.019c1.2,1.461,1.38,3.478,1.5,5.364q1.356,21.393.631,42.853A45.451,45.451,0,0,1,386.5,430.739c2.4-1.845,5.8-3.461,8.291-1.747,2.125,1.461,2.3,4.493,2.105,7.064-1.42,18.89-10.923,36.083-20.209,52.592" transform="translate(-323.692 -405.746)"/><path class="e" d="M326.412,414.941a115.32,115.32,0,0,1,12.37,46.085" transform="translate(-317.63 -383.924)"/><path class="e" d="M338.044,411.532q-1.371,23.5-4.345,46.881" transform="translate(-300.336 -392.014)"/><path class="e" d="M347.629,417.635a141.693,141.693,0,0,0-8.295,33.709" transform="translate(-286.963 -377.53)"/><path class="f" d="M376.558,423.051h-52.75l9.3,69.782h54.023l9.3-69.782Z" transform="translate(-323.809 -364.677)"/></g><g transform="translate(759.898 311.566)"><rect class="g" width="90.444" height="122.895"/><rect class="h" width="71.018" height="96.5" transform="translate(9.713 13.198)"/><g transform="translate(19.116 24.765)"><line class="e" x2="52.212"/><line class="e" x2="52.212" transform="translate(0 13.371)"/><line class="e" x2="52.212" transform="translate(0 29.829)"/><line class="e" x2="52.212" transform="translate(0 58.942)"/><line class="e" x2="31.019" transform="translate(0 47.006)"/><line class="e" x2="16.001" transform="translate(36.211 47.006)"/><line class="e" x2="16.001" transform="translate(36.211 73.044)"/></g></g><g transform="translate(724.735 481.437)"><rect class="g" width="174.217" height="143.223"/><rect class="h" width="136.799" height="112.462" transform="translate(18.709 15.381)"/><g transform="translate(36.821 28.861)"><line class="h" x2="100.574"/><line class="h" x2="100.574" transform="translate(0 15.583)"/><line class="h" x2="100.574" transform="translate(0 34.763)"/><line class="h" x2="100.574" transform="translate(0 68.692)"/><line class="h" x2="59.749" transform="translate(0 54.782)"/><line class="h" x2="30.822" transform="translate(69.752 54.782)"/><line class="h" x2="30.822" transform="translate(69.752 85.126)"/></g></g><g transform="translate(265.536 290.956)"><rect class="g" width="397.25" height="290.947" transform="translate(12.823)"/><g transform="translate(30.404 20.961)"><rect class="h" width="359.901" height="39.625" transform="translate(1.094)"/><rect class="h" width="359.901" height="251.79" transform="translate(1.094)"/><line class="h" x2="360.082" transform="translate(0 59.106)"/><line class="h" x2="360.082" transform="translate(0.547 205.129)"/><line class="h" x2="360.082" transform="translate(0.547 157.701)"/><line class="h" x2="360.082" transform="translate(0.547 110.272)"/><line class="h" y2="212.165" transform="translate(1.094 39.625)"/><line class="h" y2="212.165" transform="translate(52.378 39.625)"/><line class="h" y2="212.165" transform="translate(103.662 39.625)"/><line class="h" y2="212.165" transform="translate(154.946 39.625)"/><line class="h" y2="212.165" transform="translate(206.23 39.625)"/><line class="h" y2="212.165" transform="translate(257.514 39.625)"/><line class="h" y2="212.165" transform="translate(308.798 39.625)"/><line class="h" y2="212.165" transform="translate(360.082 39.625)"/></g><g transform="translate(0 286.334)"><rect class="i" width="422.896" height="14.969"/></g></g><g transform="translate(266.997 870.63)"><path class="g" d="M899.505,443.738S883.145,470.309,750.54,472.6c-46.547.8-127.4,20.324-206.2,20.324-209.943,0-273.93-49.188-273.93-49.188" transform="translate(-255.424 -443.737)"/><line class="j" x1="661.454"/></g><g transform="translate(448.538 263.86)"><g transform="translate(230.622 303.431)"><rect class="k" width="100.214" height="73.911" rx="2.073" transform="translate(0 10.828)"/><rect class="l" width="36.314" height="22.936" rx="1.671" transform="translate(31.95)"/></g><path class="i" d="M398.718,290.7c55.348,15.523,91.64,104.357,91.64,131.829s-68.527,96.252-68.527,96.252l-4.523-12.137L452.376,430.4s-59.9-68.163-60.044-88.7C392.13,314.232,389.785,290.7,398.718,290.7Z" transform="translate(-148.63 -200.161)"/><g transform="translate(204.73 245.39)"><path class="m" d="M436.868,447.7s8.686,15.406,3.923,19.716c-3.623,3.286-54.282,6.224-55.625-2.324-.779-4.935,36.293-16.708,36.293-16.708l10.531-16.009Z" transform="translate(-369.386 -109.317)"/><path class="n" d="M387.622,336.606s-18.647,39.062,4.321,179.958c11.037,67.728,40.61,159.112,40.61,159.112H448.37C460.969,538.372,464.2,451.09,464.2,420.8c0-38.114-28.5-69.313-28.5-69.313" transform="translate(-380.48 -336.606)"/></g><path class="m" d="M407.3,447.7s8.686,15.406,3.927,19.716c-3.623,3.286-54.282,6.224-55.628-2.324-.776-4.935,36.293-16.708,36.293-16.708l10.535-16.009Z" transform="translate(-234.827 136.073)"/><path class="n" d="M375.508,340.145S355.589,406.351,359.8,504.01c2.884,66.935,23.525,164.3,23.525,164.3h15.817c20.556-130.665,68.527-235.546,68.527-265.841,0-38.111-19.146-62.759-19.146-62.759" transform="translate(-226.216 -83.849)"/><path class="o" d="M384.232,452.571c7.664-29.519,26.73-46.466,21.187-97.884" transform="translate(-166.845 -48.305)"/><path class="i" d="M455.954,288.728S494.9,299.934,504.9,316.584c4.672,7.789,2.27,55.092-1.285,91.971-5.859,60.819-1.774,72.484-5.485,80.573-3.333,7.263-32.862,12.441-57,12.441s-83.686-1.191-78.964-12.751c3.8-9.307,6.969-38.586-.233-128.6C356.973,355.262,370.2,288.728,455.954,288.728Z" transform="translate(-221.93 -204.841)"/><g transform="translate(0 132.318)"><path class="i" d="M340.51,344.405H325.3l-4.966-39.88h25.138Z" transform="translate(-318.483 -299.669)"/><rect class="p" width="28.845" height="7.059" transform="translate(0 0.881)"/><rect class="q" width="2.361" height="2.617" transform="translate(21.251)"/><g transform="translate(9.915 14.295)"><path class="r" d="M328.3,311.994a6.2,6.2,0,0,1-1.42-.563,4.32,4.32,0,0,1-1.036-1.278c-.324-.5-1.029-2.405-2.392-2.405-.955.638-1,2.705.041,4.092,3.377,4.5,6.908,3.316,7.394,2.277A6.183,6.183,0,0,0,328.3,311.994Z" transform="translate(-322.726 -306.317)"/><path class="r" d="M323.159,308.021c1.5-1.653,5-.074,6.49,1.68,1.066,1.255,1.8,2.918,1.359,4.176-.03.088-.074.182-.172.2-.138.027-.29-.111-.4-.236a8.8,8.8,0,0,0-1.673-1.4c-.988-.752-2.348-.847-3.171-1.838-.739-.891-.813-2.395-2.435-2.577" transform="translate(-321.7 -307.323)"/></g></g><path class="f" d="M359.748,341.294c-3.657-2.5-12.2-4.78-13.854-9.206-.864-2.307.317-5.782.466-8.177.2-3.188.81-7.077-.877-9.867a7.049,7.049,0,0,0-2.034-2.088,17.315,17.315,0,0,1-1.005,2.189c-2.024,2.537-5.721,3.167-8.9,2.51s-7.91-2.3-10.636-6.439c-.132-1.069-1.592,0-2.4,2.064-.631,1.612-.088,5.664.138,7.381.533,4.1.081,5.5,2.01,9.165,2.908,5.519,10.049,8.7,16.114,12.693,4,2,13.513,10.093,12.619,10.164" transform="translate(-318.787 -154.844)"/><path class="i" d="M525.7,288.434s-44.132-1.319-69.33,30.744c-20.408,25.967-36.225,71.674-46.706,76.684-18.117,8.662-74.049-10.288-74.049-10.288l-9.9,6.659s67.839,71.964,113.637,49.043c26.466-13.243,53.493-79.952,53.493-79.952" transform="translate(-305.731 -205.556)"/><g transform="translate(175.831)"><path class="f" d="M380.064,273.6a52.939,52.939,0,0,0-7.455,11.213,5.968,5.968,0,0,0-.681,1.953,2.164,2.164,0,0,0,.648,1.889,2.926,2.926,0,0,0,1.059.5,16.022,16.022,0,0,0,9.324-.034" transform="translate(-371.912 -240.736)"/><path class="f" d="M378.184,273.245s-10.521,45.9-.462,51.995c8.544,5.181,21.261-2.155,21.261-2.155l-1.9,17.885c3.292,6.352,26.325,5.05,29.566-.3l-7.178-32.977s-1.727-32.022-8.929-36.387S384.286,263.175,378.184,273.245Z" transform="translate(-368.457 -256.782)"/><path class="s" d="M401.7,263.875c-4.426.189-8.807,1.332-13.233,1.09-4.456-.243-9.5-1.737-12.99,1.042-2.968,2.361-3.225,7.04-1.423,10.376s5.164,5.539,8.595,7.155c2.54,1.194,5.3,1.869,7.822,3.022a30.442,30.442,0,0,0,8.683,2.405,24.382,24.382,0,0,1-1.892,12.548,5.013,5.013,0,0,0-.627,2.692,3.329,3.329,0,0,0,.577,1.359c.924,1.363,2.807.695,4.453.789,1.484-2.651,1.936-4.76,4.625-4.048,3.086.816,3.785,5.519,3.417,8.113-.506,3.566-3.512,7.276-7.492,6.392-.084,2.017.938,3.9,1.956,5.64,1.036,1.768,2.26,3.643,4.2,4.294a8.456,8.456,0,0,0,3.825.1,89.911,89.911,0,0,0,10.17-1.977c2.8-.712,5.856-1.8,7.131-4.385.908-1.842.614-3.859.28-5.8a18.672,18.672,0,0,1,.361-5.937c.708-4.416,2.105-8.767,2.142-13.27.061-7.674-3.98-19.956-10.757-20.87C418.606,268.189,409.087,263.561,401.7,263.875Z" transform="translate(-369.53 -263.86)"/><g transform="translate(11.865 33.585)"><path class="t" d="M375.8,274.679a4.491,4.491,0,0,0-.189.5,7.523,7.523,0,0,0,.1,3.538c.29,1.963,3.538,1.235,3.039-.745a12.272,12.272,0,0,0-1.363-3.586C376.726,273.337,376.149,273.914,375.8,274.679Z" transform="translate(-375.43 -273.816)"/></g><path class="u" d="M375.281,272.643c4.014-1.413,9.685-1.258,12.154,1.73" transform="translate(-363.918 -245.062)"/><path class="v" d="M374.319,279.881c1.95,1.926,5.593,1.612,9.533.314" transform="translate(-366.201 -225.837)"/></g><path class="w" d="M363.077,368.426S391,346.163,405.765,315.018" transform="translate(-217.05 -142.449)"/><path class="w" d="M403.292,372.641s9.232-42.391,8.015-68.78" transform="translate(-121.611 -168.927)"/></g></g></svg>